# xmcd CD database file
# Copyright (C) 1993-1996 Ti Kan
#
# Track frame offsets:
#     150
#     12975
#     29475
#     46125
#     59100
#     73125
#     86700
#     101700
#     127950
#     140025
#     150225
#     165600
#     179175
#     192975
#
# Disc length: 2738 seconds
#
# Revision: 0
# Processed by: cddbd v1.4b41PL1 Copyright (c) Steve Scherf et al.
# Submitted via: Clarion 0.9.1
#
DISCID=cc0ab00e
DTITLE=Muddy Waters - Howlin' Wolf - Muddy and The Wolf
DYEAR=1900
DGENRE=
TTITLE0=All Aboard
TTITLE1=Rockin' Daddy
TTITLE2=Blow Wind Blow
TTITLE3=What A Woman
TTITLE4=Can't Miss What You Ain't Never Had
TTITLE5=Who's Been Talking
TTITLE6=Walkin' Thru The Park
TTITLE7=The Red Rooster (Part 1 and 2)
TTITLE8=Long Distance Call
TTITLE9=Do The Do
TTITLE10=Honey Bee
TTITLE11=Poor Boy
TTITLE12=I'm Ready
TTITLE13=Highway 49
EXTD=
EXTT0=
EXTT1=
EXTT2=
EXTT3=
EXTT4=
EXTT5=
EXTT6=
EXTT7=
EXTT8=
EXTT9=
EXTT10=
EXTT11=
EXTT12=
EXTT13=
PLAYORDER=
